<?xml version="1.0" encoding="UTF-8"?>
<svg id="b" data-name="katman 2" xmlns="http://www.w3.org/2000/svg" viewBox="0 0 604.434 205.078">
  <g id="c" data-name="Wordmark">
    <g id="d" data-name="Dark">
      <path id="e" data-name="X" d="M74.375.41c13.854,0,26.408,3.35,37.666,10.049,11.256,6.699,20.188,15.609,26.797,26.729,6.607,11.121,9.912,23.426,9.912,36.914,0,13.398-3.305,25.682-9.912,36.846-6.609,11.166-15.541,20.098-26.797,26.797-11.258,6.699-23.812,10.049-37.666,10.049-9.48,0-18.412-1.641-26.797-4.922-8.387-3.281-13.9-6.061-16.543-8.34v70.547H0V74.102c0-13.488,3.303-25.793,9.912-36.914,6.607-11.119,15.562-20.029,26.865-26.729C48.078,3.76,60.611.41,74.375.41ZM74.375,30.078c-7.84,0-15.018,1.938-21.533,5.811-6.518,3.875-11.758,9.16-15.723,15.859s-5.947,14.15-5.947,22.354,1.982,15.633,5.947,22.285c3.965,6.654,9.205,11.918,15.723,15.791,6.516,3.875,13.693,5.811,21.533,5.811s15.039-1.936,21.602-5.811c6.562-3.873,11.826-9.137,15.791-15.791,3.965-6.652,5.947-14.082,5.947-22.285s-1.982-15.654-5.947-22.354-9.229-11.984-15.791-15.859c-6.562-3.873-13.764-5.811-21.602-5.811Z" style="fill: #fff;"/>
      <path id="f" data-name="O" d="M394.98.273c13.854,0,26.408,3.35,37.666,10.049,11.256,6.699,20.188,15.609,26.797,26.729,6.607,11.121,9.912,23.426,9.912,36.914,0,13.398-3.305,25.682-9.912,36.846-6.609,11.166-15.541,20.098-26.797,26.797-11.258,6.699-23.812,10.049-37.666,10.049-12.031,0-23.174-2.619-33.428-7.861-10.254-5.24-18.799-12.281-25.635-21.123-4.74-6.197-8.477-13.17-11.211-20.918l27.891-34.453c-.547,4.648-.82,8.203-.82,10.664,0,8.203,1.982,15.633,5.947,22.285,3.965,6.654,9.205,11.918,15.723,15.791,6.516,3.875,13.693,5.811,21.533,5.811s15.039-1.936,21.602-5.811c6.562-3.873,11.803-9.137,15.723-15.791,3.918-6.652,5.879-14.082,5.879-22.285s-1.961-15.631-5.879-22.285c-3.92-6.652-9.16-11.916-15.723-15.791-6.562-3.873-13.764-5.811-21.602-5.811-6.016,0-11.963,1.619-17.842,4.854-5.879,3.236-11.781,7.68-17.705,13.33-5.926,5.652-11.758,12.01-17.5,19.072-5.742,7.064-11.395,14.287-16.953,21.67-2.188,2.826-4.33,5.605-6.426,8.34-6.654,8.934-13.719,17.158-21.191,24.678-7.475,7.52-15.814,13.672-25.02,18.457-9.207,4.785-19.688,7.178-31.445,7.178-13.764,0-26.297-3.35-37.598-10.049-11.303-6.699-20.258-15.631-26.865-26.797-6.609-11.164-9.912-23.447-9.912-36.846,0-13.488,3.303-25.793,9.912-36.914,6.607-11.119,15.562-20.029,26.865-26.729C214.602,3.623,227.135.273,240.898.273c12.031,0,23.174,2.621,33.428,7.861,10.254,5.242,18.799,12.283,25.635,21.123,4.648,6.016,8.293,12.762,10.938,20.234l-27.344,32.402c.363-2.916.547-5.559.547-7.93,0-8.203-1.982-15.631-5.947-22.285-3.965-6.652-9.207-11.916-15.723-15.791-6.518-3.873-13.695-5.811-21.533-5.811s-15.018,1.938-21.533,5.811c-6.518,3.875-11.758,9.139-15.723,15.791-3.965,6.654-5.947,14.082-5.947,22.285s1.982,15.633,5.947,22.285c3.965,6.654,9.205,11.918,15.723,15.791,6.516,3.875,13.693,5.811,21.533,5.811,6.016,0,11.984-1.617,17.91-4.854,5.924-3.234,11.826-7.678,17.705-13.33,5.879-5.65,11.689-12.008,17.432-19.072,5.742-7.062,11.393-14.287,16.953-21.67,2.188-2.824,4.328-5.605,6.426-8.34,6.652-8.932,13.717-17.158,21.191-24.678,7.473-7.52,15.812-13.672,25.02-18.457,9.205-4.785,19.688-7.178,31.445-7.178Z" style="fill: #fff;"/>
      <path id="g" data-name="P" d="M604.297,0l-48.945,73.691,49.082,73.965h-36.641l-30.898-46.211-30.762,46.211h-36.777l49.219-73.965L469.629,0h36.777l30.488,46.074L567.52,0h36.777Z" style="fill: #fff;"/>
    </g>
  </g>
</svg>